<svg data-v-423bf9ae="" xmlns="http://www.w3.org/2000/svg" viewBox="0 0 373.58600543640705 60" class="font"><!----><!----><defs data-v-423bf9ae=""><linearGradient data-v-423bf9ae="" gradientTransform="rotate(25)" id="6fe852aa-8440-45fb-8f59-586b96e06da3" x1="0%" y1="0%" x2="100%" y2="0%"><stop data-v-423bf9ae="" offset="0%" style="stop-color: rgb(0, 118, 221); stop-opacity: 1;"></stop><stop data-v-423bf9ae="" offset="100%" style="stop-color: rgb(0, 205, 233); stop-opacity: 1;"></stop></linearGradient></defs><g data-v-423bf9ae="" id="324e5e0d-2c43-4c99-bd1d-2d146e9327ba" fill="url(#6fe852aa-8440-45fb-8f59-586b96e06da3)" transform="matrix(5.830904006958008,0,0,5.830904006958008,-5.772614479064941,-12.65306282043457)"><path d="M0.99 12.29L0.99 2.69L2.70 2.69L6.87 8.41L6.87 8.41Q7.04 8.67 7.17 8.88L7.17 8.88L7.17 8.88Q7.29 9.10 7.35 9.18L7.35 9.18L7.42 9.16L7.39 8.40L7.39 2.69L9.11 2.69L9.11 12.29L7.43 12.29L3.23 6.51L3.23 6.51Q3.08 6.30 2.94 6.04L2.94 6.04L2.94 6.04Q2.80 5.78 2.76 5.73L2.76 5.73L2.69 5.77L2.69 5.77Q2.69 5.84 2.70 6.05L2.70 6.05L2.70 6.05Q2.72 6.26 2.72 6.54L2.72 6.54L2.72 12.29L0.99 12.29ZM13.43 12.46L13.43 12.46Q11.05 12.46 11.05 9.90L11.05 9.90L11.05 4.93L12.73 4.93L12.73 9.60L12.73 9.60Q12.73 10.36 13.07 10.68L13.07 10.68L13.07 10.68Q13.41 11.00 14.08 11.00L14.08 11.00L14.08 11.00Q14.78 11.00 15.26 10.50L15.26 10.50L15.26 10.50Q15.74 10.00 15.74 9.21L15.74 9.21L15.74 4.93L17.42 4.93L17.42 12.29L16.03 12.29L15.89 11.31L15.79 11.31L15.79 11.31Q15.39 11.86 14.79 12.16L14.79 12.16L14.79 12.16Q14.20 12.46 13.43 12.46L13.43 12.46ZM23.66 12.46L23.66 12.46Q21.39 12.46 20.20 11.24L20.20 11.24L20.20 11.24Q19.01 10.02 19.01 7.49L19.01 7.49L19.01 7.49Q19.01 5.00 20.22 3.76L20.22 3.76L20.22 3.76Q21.42 2.52 23.66 2.52L23.66 2.52L23.66 2.52Q24.89 2.52 25.84 2.93L25.84 2.93L25.84 2.93Q26.80 3.35 27.35 4.18L27.35 4.18L27.35 4.18Q27.90 5.01 27.90 6.23L27.90 6.23L26.07 6.23L26.07 6.23Q26.07 5.18 25.42 4.61L25.42 4.61L25.42 4.61Q24.77 4.03 23.69 4.03L23.69 4.03L23.69 4.03Q22.25 4.03 21.55 4.86L21.55 4.86L21.55 4.86Q20.85 5.68 20.85 7.35L20.85 7.35L20.85 7.63L20.85 7.63Q20.85 9.31 21.54 10.13L21.54 10.13L21.54 10.13Q22.23 10.95 23.69 10.95L23.69 10.95L23.69 10.95Q24.82 10.95 25.48 10.38L25.48 10.38L25.48 10.38Q26.14 9.81 26.14 8.78L26.14 8.78L27.90 8.78L27.90 8.78Q27.90 10.58 26.73 11.52L26.73 11.52L26.73 11.52Q25.56 12.46 23.66 12.46L23.66 12.46ZM32.65 12.46L32.65 12.46Q30.83 12.46 29.93 11.52L29.93 11.52L29.93 11.52Q29.02 10.58 29.02 8.61L29.02 8.61L29.02 8.61Q29.02 6.64 29.93 5.70L29.93 5.70L29.93 5.70Q30.83 4.76 32.65 4.76L32.65 4.76L32.65 4.76Q34.47 4.76 35.37 5.70L35.37 5.70L35.37 5.70Q36.27 6.64 36.27 8.61L36.27 8.61L36.27 8.61Q36.27 10.58 35.37 11.52L35.37 11.52L35.37 11.52Q34.47 12.46 32.65 12.46L32.65 12.46ZM32.65 11.09L32.65 11.09Q33.64 11.09 34.09 10.51L34.09 10.51L34.09 10.51Q34.54 9.93 34.54 8.71L34.54 8.71L34.54 8.51L34.54 8.51Q34.54 7.29 34.09 6.71L34.09 6.71L34.09 6.71Q33.64 6.13 32.65 6.13L32.65 6.13L32.65 6.13Q31.64 6.13 31.20 6.71L31.20 6.71L31.20 6.71Q30.76 7.29 30.76 8.51L30.76 8.51L30.76 8.71L30.76 8.71Q30.76 9.93 31.20 10.51L31.20 10.51L31.20 10.51Q31.64 11.09 32.65 11.09L32.65 11.09ZM40.24 12.46L40.24 12.46Q38.84 12.46 38.07 11.51L38.07 11.51L38.07 11.51Q37.30 10.56 37.30 8.60L37.30 8.60L37.30 8.60Q37.30 6.69 38.07 5.73L38.07 5.73L38.07 5.73Q38.84 4.76 40.12 4.76L40.12 4.76L40.12 4.76Q41.66 4.76 42.34 5.78L42.34 5.78L42.42 5.78L42.42 2.17L44.10 2.17L44.10 12.29L42.71 12.29L42.57 11.31L42.49 11.31L42.49 11.31Q42.13 11.87 41.54 12.17L41.54 12.17L41.54 12.17Q40.95 12.46 40.24 12.46L40.24 12.46ZM40.74 11.02L40.74 11.02Q41.61 11.02 42.01 10.44L42.01 10.44L42.01 10.44Q42.42 9.86 42.42 8.71L42.42 8.71L42.42 8.54L42.42 8.54Q42.42 6.20 40.74 6.20L40.74 6.20L40.74 6.20Q39.82 6.20 39.42 6.75L39.42 6.75L39.42 6.75Q39.03 7.31 39.03 8.53L39.03 8.53L39.03 8.71L39.03 8.71Q39.03 9.91 39.42 10.46L39.42 10.46L39.42 10.46Q39.82 11.02 40.74 11.02L40.74 11.02ZM49.13 12.46L49.13 12.46Q47.33 12.46 46.47 11.52L46.47 11.52L46.47 11.52Q45.60 10.58 45.60 8.61L45.60 8.61L45.60 8.61Q45.60 6.64 46.47 5.70L46.47 5.70L46.47 5.70Q47.35 4.76 49.13 4.76L49.13 4.76L49.13 4.76Q50.75 4.76 51.55 5.67L51.55 5.67L51.55 5.67Q52.36 6.58 52.36 8.51L52.36 8.51L52.36 9.02L47.31 9.02L47.31 9.02Q47.35 10.11 47.77 10.62L47.77 10.62L47.77 10.62Q48.20 11.13 49.14 11.13L49.14 11.13L49.14 11.13Q49.84 11.13 50.27 10.77L50.27 10.77L50.27 10.77Q50.71 10.42 50.71 9.72L50.71 9.72L52.36 9.72L52.36 9.72Q52.36 11.07 51.46 11.77L51.46 11.77L51.46 11.77Q50.57 12.46 49.13 12.46L49.13 12.46ZM47.33 7.83L50.61 7.83L50.61 7.83Q50.61 6.09 49.13 6.09L49.13 6.09L49.13 6.09Q48.29 6.09 47.86 6.52L47.86 6.52L47.86 6.52Q47.43 6.94 47.33 7.83L47.33 7.83ZM53.84 12.29L53.84 4.93L55.23 4.93L55.38 6.09L55.48 6.09L55.48 6.09Q55.99 4.76 57.13 4.76L57.13 4.76L57.13 4.76Q57.39 4.76 57.58 4.81L57.58 4.81L57.58 4.81Q57.78 4.86 57.83 4.89L57.83 4.89L57.83 6.47L57.30 6.47L57.30 6.47Q55.52 6.47 55.52 8.46L55.52 8.46L55.52 12.29L53.84 12.29ZM61.81 12.46L61.81 12.46Q60.28 12.46 59.45 11.83L59.45 11.83L59.45 11.83Q58.62 11.20 58.62 10.19L58.62 10.19L58.62 10.19Q58.62 10.07 58.63 10.02L58.63 10.02L58.63 10.02Q58.63 9.98 58.63 9.97L58.63 9.97L60.27 9.97L60.27 10.08L60.27 10.08Q60.28 10.63 60.74 10.88L60.74 10.88L60.74 10.88Q61.19 11.14 61.88 11.14L61.88 11.14L61.88 11.14Q62.50 11.14 62.93 10.94L62.93 10.94L62.93 10.94Q63.36 10.74 63.36 10.33L63.36 10.33L63.36 10.33Q63.36 10.01 63.13 9.81L63.13 9.81L63.13 9.81Q62.89 9.60 62.54 9.48L62.54 9.48L62.54 9.48Q62.19 9.37 61.54 9.21L61.54 9.21L61.54 9.21Q60.68 9.00 60.12 8.79L60.12 8.79L60.12 8.79Q59.57 8.58 59.18 8.13L59.18 8.13L59.18 8.13Q58.79 7.69 58.79 6.96L58.79 6.96L58.79 6.96Q58.79 5.91 59.65 5.33L59.65 5.33L59.65 5.33Q60.52 4.76 61.91 4.76L61.91 4.76L61.91 4.76Q62.76 4.76 63.43 5.01L63.43 5.01L63.43 5.01Q64.11 5.26 64.48 5.72L64.48 5.72L64.48 5.72Q64.85 6.17 64.85 6.76L64.85 6.76L64.83 7.07L63.20 7.07L63.20 7.01L63.20 7.01Q63.20 6.58 62.84 6.33L62.84 6.33L62.84 6.33Q62.48 6.09 61.81 6.09L61.81 6.09L61.81 6.09Q61.15 6.09 60.82 6.29L60.82 6.29L60.82 6.29Q60.48 6.50 60.48 6.82L60.48 6.82L60.48 6.82Q60.48 7.21 60.89 7.40L60.89 7.40L60.89 7.40Q61.31 7.59 62.16 7.77L62.16 7.77L62.16 7.77Q63.08 7.98 63.65 8.20L63.65 8.20L63.65 8.20Q64.22 8.41 64.64 8.88L64.64 8.88L64.64 8.88Q65.06 9.34 65.06 10.12L65.06 10.12L65.06 10.12Q65.06 11.34 64.18 11.90L64.18 11.90L64.18 11.90Q63.31 12.46 61.81 12.46L61.81 12.46Z"></path></g><!----><!----></svg>